<?xml version="1.0" standalone="no"?>
<!DOCTYPE svg PUBLIC "-//W3C//DTD SVG 20010904//EN"
 "http://www.w3.org/TR/2001/REC-SVG-20010904/DTD/svg10.dtd">
<svg version="1.0" xmlns="http://www.w3.org/2000/svg"
 width="626.000000pt" height="626.000000pt" viewBox="0 0 626.000000 626.000000"
 preserveAspectRatio="xMidYMid meet">
<metadata>
Created by potrace 1.16, written by Peter Selinger 2001-2019
</metadata>
<g transform="translate(0.000000,626.000000) scale(0.100000,-0.100000)"
fill="#000000" stroke="none">
<path d="M2390 4696 c0 -16 159 -126 238 -164 l93 -45 -88 -32 c-117 -42 -169
-67 -288 -138 -322 -191 -569 -500 -689 -861 -20 -58 -36 -112 -35 -119 0 -6
11 18 24 55 182 521 666 903 1226 969 148 17 403 3 504 -28 12 -4 -15 -12 -70
-20 -185 -27 -398 -112 -562 -224 -131 -91 -282 -252 -368 -394 -12 -19 -5
-14 20 15 211 245 475 407 779 478 94 21 136 25 276 26 232 1 311 -15 413 -82
34 -23 49 -26 133 -26 l94 -1 0 75 0 75 -52 35 c-90 59 -269 145 -373 178
-206 65 -356 83 -672 81 -190 -2 -229 1 -303 19 -88 21 -183 61 -257 107 -24
14 -43 24 -43 21z"/>
<path d="M4450 3670 c0 -90 -11 -123 -47 -139 -18 -8 -23 -16 -18 -29 24 -60
59 -170 77 -247 30 -125 32 -447 4 -575 -55 -255 -184 -521 -336 -692 -23 -27
-40 -48 -37 -48 2 0 24 11 48 24 81 45 162 43 223 -5 35 -27 39 -24 133 118
115 175 188 350 235 566 19 88 22 132 22 312 0 178 -3 225 -22 311 -28 130
-81 283 -138 396 l-44 88 -50 0 -50 0 0 -80z"/>
<path d="M2557 3380 c-4 -14 -8 -38 -9 -55 -3 -29 -5 -30 -98 -51 -119 -25
-123 -28 -146 -69 -13 -24 -27 -35 -49 -39 -47 -9 -61 -32 -64 -103 -2 -59 -1
-63 31 -90 99 -84 101 -88 96 -156 -3 -48 -15 -85 -51 -162 -61 -131 -70 -181
-64 -329 5 -127 25 -224 55 -265 10 -13 50 -51 90 -84 l73 -60 27 25 c114 105
265 136 434 89 89 -24 218 -48 316 -56 67 -7 72 -6 72 12 0 41 -42 181 -74
248 -66 139 -148 224 -311 322 -120 73 -146 127 -125 268 14 103 12 291 -5
350 -19 69 -70 213 -77 220 -3 3 -20 -14 -39 -39 l-34 -44 -21 46 c-20 44 -22
45 -27 22z"/>
<path d="M3515 2424 c-47 -24 -66 -45 -91 -99 -37 -79 -28 -192 26 -311 l20
-44 80 0 c44 0 80 3 80 8 0 4 -7 17 -15 28 -36 52 -75 141 -75 172 0 42 13 67
61 117 49 52 57 83 29 118 -25 32 -68 36 -115 11z"/>
</g>
</svg>
